P2
9 9
9
5 3 1 2 4 6 8 7 9
2 4 8 5 7 9 1 3 6
9 6 7 8 3 1 5 4 2
4 1 2 7 9 8 6 5 3
7 8 5 6 2 3 9 1 4
3 9 6 1 5 4 2 8 7
1 2 4 3 8 7 6 9 5
6 5 3 9 1 2 4 2 8
8 7 9 4 6 5 3 2 1
